# xmcd
#
# Track frame offsets:
#	150
#	15261
#	28107
#	43633
#	68794
#	92631
#	103717
#	119692
#	133206
#	151798
#	165231
#	183932
#	201045
#	223832
#	237140
#	255082
#	268935
#	283186
#
# Disc length: 3985 seconds
# Revision: 0
# Processed by: cddbd v1.5.2PL0 Copyright (c) Steve Scherf et al.
# Submitted via: dBpowerAMP V12.0
#
DISCID=f60f8f12
DTITLE=Various Artist - Bluegrass - Mountain and Old-Time Music, Radio Volume 3
DYEAR=2015
DGENRE=Bluegrass
TTITLE0=Crowe, Lawson and Williams - Blue Memories
TTITLE1=Tennessee Mafia Jug Band - Lesters Loafin' Lounge
TTITLE2=Dolly Parton - Don't Think Twice
TTITLE3=Michael Johnathan - BAN-Jokes
TTITLE4=Pat Flynn feat. The Isaacs - Kingdom Come
TTITLE5=Ken Grandjean - Foggy Mountain Special
TTITLE6=Si Kahn - Mount Polley Mine Disaster
TTITLE7=Amy Gallatin - I Heard The Bluebirds Sing
TTITLE8=David Naiditch - Bluegrass in the Backwoods
TTITLE9=Johnny Campbell and The Bluegrass Drifters - Always a Double
TTITLE10=Ma Crow and The Lady Slippers - Memory of a Mountain
TTITLE11=Dirty River Ramblers - Minnesota Cabin
TTITLE12=The Four Legged Faithful - Trustfall
TTITLE13=Crooked Stovepipe - Old Swinging Bridge
TTITLE14=Jared Finck - Rockerville
TTITLE15=The Dejablue Grass Band - On the Radio
TTITLE16=David Kincicky - Old Stoat
TTITLE17=The Same Old Newgrass Band - When Will I Be Loved
EXTD=
EXTT0=
EXTT1=
EXTT2=
EXTT3=
EXTT4=
EXTT5=
EXTT6=
EXTT7=
EXTT8=
EXTT9=
EXTT10=
EXTT11=
EXTT12=
EXTT13=
EXTT14=
EXTT15=
EXTT16=
EXTT17=
PLAYORDER=
